<svg width="12" height="14" viewBox="0 0 8 9" fill="none" xmlns="http://www.w3.org/2000/svg">
<path id="Vector" d="M3.90741 4.58466C3.45562 4.58466 3.08598 4.19037 3.08598 3.70847C3.08598 3.22656 3.45562 2.83228 3.90741 2.83228C4.35919 2.83228 4.72883 3.22656 4.72883 3.70847C4.72883 4.19037 4.35919 4.58466 3.90741 4.58466ZM6.37169 3.79609C6.37169 2.2058 5.2833 1.0799 3.90741 1.0799C2.53151 1.0799 1.44312 2.2058 1.44312 3.79609C1.44312 4.82123 2.24401 6.17932 3.90741 7.80028C5.5708 6.17932 6.37169 4.82123 6.37169 3.79609ZM3.90741 0.203705C5.63241 0.203705 7.19312 1.61437 7.19312 3.79609C7.19312 5.25056 6.09651 6.97228 3.90741 8.96561C1.7183 6.97228 0.621691 5.25056 0.621691 3.79609C0.621691 1.61437 2.18241 0.203705 3.90741 0.203705Z" fill="black"/>
</svg>
