<svg width="8" height="10" viewBox="0 0 8 10" fill="none" xmlns="http://www.w3.org/2000/svg">
<path fill-rule="evenodd" clip-rule="evenodd" d="M4.04982 9.80866C4.04982 9.80866 0.896179 6.946 0.896179 4.1292C0.896179 3.1361 1.2622 2.18367 1.91373 1.48144C2.56525 0.779213 3.44891 0.384705 4.3703 0.384705C5.2917 0.384705 6.17536 0.779213 6.82688 1.48144C7.47841 2.18367 7.84443 3.1361 7.84443 4.1292C7.84443 6.946 4.69079 9.80866 4.69079 9.80866C4.51535 9.98278 4.22656 9.98091 4.04982 9.80866ZM4.3703 5.76742C4.5699 5.76742 4.76755 5.72504 4.95196 5.64271C5.13636 5.56039 5.30392 5.43972 5.44506 5.28759C5.5862 5.13547 5.69815 4.95488 5.77454 4.75612C5.85092 4.55736 5.89023 4.34433 5.89023 4.1292C5.89023 3.91407 5.85092 3.70104 5.77454 3.50228C5.69815 3.30352 5.5862 3.12293 5.44506 2.97081C5.30392 2.81868 5.13636 2.69801 4.95196 2.61568C4.76755 2.53336 4.5699 2.49098 4.3703 2.49098C3.96719 2.49098 3.58059 2.66358 3.29555 2.97081C3.01051 3.27803 2.85037 3.69472 2.85037 4.1292C2.85037 4.56368 3.01051 4.98037 3.29555 5.28759C3.58059 5.59482 3.96719 5.76742 4.3703 5.76742Z" fill="#ED6308"/>
</svg>
