<svg width="14" height="14" viewBox="0 0 14 14" fill="none" xmlns="http://www.w3.org/2000/svg">
<path d="M12.8153 12.4211L9.07752 8.69651M1.60207 5.5927C1.60207 6.16334 1.71486 6.72839 1.934 7.25559C2.15315 7.78279 2.47435 8.26181 2.87928 8.66532C3.28421 9.06882 3.76493 9.38889 4.29399 9.60726C4.82305 9.82564 5.3901 9.93803 5.96275 9.93803C6.5354 9.93803 7.10245 9.82564 7.63151 9.60726C8.16057 9.38889 8.64129 9.06882 9.04622 8.66532C9.45114 8.26181 9.77235 7.78279 9.9915 7.25559C10.2106 6.72839 10.3234 6.16334 10.3234 5.5927C10.3234 5.02207 10.2106 4.45702 9.9915 3.92982C9.77235 3.40262 9.45114 2.92359 9.04622 2.52009C8.64129 2.11659 8.16057 1.79652 7.63151 1.57814C7.10245 1.35977 6.5354 1.24738 5.96275 1.24738C5.3901 1.24738 4.82305 1.35977 4.29399 1.57814C3.76493 1.79652 3.28421 2.11659 2.87928 2.52009C2.47435 2.92359 2.15315 3.40262 1.934 3.92982C1.71486 4.45702 1.60207 5.02207 1.60207 5.5927Z" stroke="#5F5F5F" stroke-width="1.24152" stroke-linecap="round" stroke-linejoin="round"/>
</svg>
