<svg width="268" height="25" viewBox="0 0 268 25" fill="none" xmlns="http://www.w3.org/2000/svg">
<rect width="268" height="25" rx="5.25" fill="#E9FF99"/>
<path d="M159 8C159 6.34315 160.343 5 162 5H207C208.657 5 210 6.34315 210 8V12.5V17C210 18.6569 208.657 20 207 20H162C160.343 20 159 18.6569 159 17V8Z" fill="#1851FF"/>
<path d="M159 8C159 6.34315 160.343 5 162 5H207C208.657 5 210 6.34315 210 8V12.5V17C210 18.6569 208.657 20 207 20H162C160.343 20 159 18.6569 159 17V8Z" stroke="black"/>
<path d="M72.17 11H73.81V12.07H72.17V11ZM68.67 13.79H69.3C70.6 13.79 71.44 13.77 72.45 13.6L72.56 14.66C71.52 14.84 70.63 14.86 69.3 14.86H68.67V13.79ZM68.67 8.65H72.11V9.7H69.93V14.18H68.67V8.65ZM69.57 11.14H71.76V12.16H69.57V11.14ZM75.09 7.63H76.36V16.89H75.09V7.63ZM73.18 7.79H74.42V16.48H73.18V7.79ZM83.9492 7.62H85.2892V16.91H83.9492V7.62ZM80.2992 8.27C81.6992 8.27 82.7292 9.55 82.7292 11.57C82.7292 13.61 81.6992 14.89 80.2992 14.89C78.8992 14.89 77.8692 13.61 77.8692 11.57C77.8692 9.55 78.8992 8.27 80.2992 8.27ZM80.2992 9.48C79.6092 9.48 79.1392 10.21 79.1392 11.57C79.1392 12.95 79.6092 13.69 80.2992 13.69C80.9892 13.69 81.4492 12.95 81.4492 11.57C81.4492 10.21 80.9892 9.48 80.2992 9.48ZM87.8684 7.79H89.1784V8.4H92.7884V7.79H94.1084V10.89H87.8684V7.79ZM89.1784 9.37V9.91H92.7884V9.37H89.1784ZM86.7984 11.39H95.1684V12.43H86.7984V11.39ZM87.7584 12.96H94.1584V15.31H89.0784V16.15H87.7684V14.4H92.8484V13.93H87.7584V12.96ZM87.7684 15.84H94.3984V16.83H87.7684V15.84ZM102.358 7.64H103.698V13.25H102.358V7.64ZM96.4777 11.81H97.2877C99.0877 11.81 100.258 11.77 101.598 11.55L101.748 12.61C100.368 12.85 99.1377 12.88 97.2877 12.88H96.4777V11.81ZM96.4677 8.18H100.728V11H97.7877V12.41H96.4777V10.01H99.4177V9.24H96.4677V8.18ZM100.578 13.42C102.538 13.42 103.758 14.05 103.758 15.16C103.758 16.26 102.538 16.9 100.578 16.9C98.6177 16.9 97.4177 16.26 97.4177 15.16C97.4177 14.05 98.6177 13.42 100.578 13.42ZM100.578 14.45C99.3677 14.45 98.7377 14.67 98.7377 15.16C98.7377 15.64 99.3677 15.87 100.578 15.87C101.798 15.87 102.428 15.64 102.428 15.16C102.428 14.67 101.798 14.45 100.578 14.45ZM110.781 9.67H112.321V10.74H110.781V9.67ZM110.781 12.53H112.321V13.61H110.781V12.53ZM113.791 7.63H115.061V16.89H113.791V7.63ZM111.941 7.77H113.181V16.47H111.941V7.77ZM109.181 8.28C110.411 8.28 111.201 9.55 111.201 11.64C111.201 13.74 110.411 15.01 109.181 15.01C107.961 15.01 107.181 13.74 107.181 11.64C107.181 9.55 107.961 8.28 109.181 8.28ZM109.181 9.53C108.671 9.53 108.371 10.23 108.371 11.64C108.371 13.06 108.671 13.75 109.181 13.75C109.701 13.75 110.001 13.06 110.001 11.64C110.001 10.23 109.701 9.53 109.181 9.53ZM123.18 8.83H124.78V9.92H123.18V8.83ZM123.18 10.84H124.78V11.93H123.18V10.84ZM122.26 7.63H123.59V13.09H122.26V7.63ZM117.41 13.47H123.59V16.89H122.26V14.53H117.41V13.47ZM118.88 8.13C120.31 8.13 121.4 9.08 121.4 10.4C121.4 11.72 120.31 12.66 118.88 12.66C117.45 12.66 116.36 11.72 116.36 10.4C116.36 9.08 117.45 8.13 118.88 8.13ZM118.88 9.26C118.18 9.26 117.66 9.67 117.66 10.4C117.66 11.13 118.18 11.55 118.88 11.55C119.58 11.55 120.1 11.13 120.1 10.4C120.1 9.67 119.58 9.26 118.88 9.26ZM131.44 7.63H132.76V16.89H131.44V7.63ZM132.46 11.24H134.1V12.35H132.46V11.24ZM125.46 9H130.85V10.06H125.46V9ZM128.17 10.58C129.52 10.58 130.52 11.5 130.52 12.79C130.52 14.08 129.52 15 128.17 15C126.82 15 125.82 14.08 125.82 12.79C125.82 11.5 126.82 10.58 128.17 10.58ZM128.17 11.66C127.54 11.66 127.09 12.08 127.09 12.79C127.09 13.5 127.54 13.92 128.17 13.92C128.8 13.92 129.25 13.5 129.25 12.79C129.25 12.08 128.8 11.66 128.17 11.66ZM127.5 7.78H128.83V9.4H127.5V7.78ZM141.079 7.63H142.419V16.89H141.079V7.63ZM138.349 8.59H139.669C139.669 11.42 138.709 13.74 135.419 15.33L134.729 14.27C137.389 12.99 138.349 11.31 138.349 8.83V8.59ZM135.219 8.59H138.979V9.64H135.219V8.59Z" fill="#333740"/>
<path d="M205.086 10.9066C205.343 10.9066 205.526 11.1548 205.451 11.4005L204.32 15.1074C204.27 15.2681 204.122 15.378 203.954 15.378H202.428C202.256 15.378 202.105 15.263 202.059 15.097L201.753 13.984C201.651 13.6113 201.123 13.6087 201.017 13.9803L200.698 15.1006C200.651 15.2648 200.501 15.378 200.33 15.378H198.811C198.643 15.378 198.494 15.2678 198.445 15.1066L197.321 11.3997C197.247 11.1543 197.431 10.9066 197.687 10.9066H198.721C198.903 10.9066 199.06 11.0347 199.096 11.2128L199.312 12.2764C199.392 12.6722 199.951 12.6893 200.055 12.2991L200.352 11.1901C200.396 11.0229 200.548 10.9066 200.721 10.9066H202.142C202.313 10.9066 202.464 11.0214 202.51 11.1871L202.825 12.327C202.932 12.7153 203.489 12.695 203.568 12.2999L203.784 11.2142C203.82 11.0354 203.977 10.9066 204.159 10.9066H205.086Z" fill="#9EB6FF"/>
<path d="M194.588 15.4895C194.053 15.4895 193.573 15.3966 193.146 15.2106C192.726 15.0246 192.395 14.7589 192.153 14.4135C191.911 14.0682 191.791 13.6617 191.791 13.1941C191.791 12.7318 191.911 12.328 192.153 11.9826C192.402 11.6372 192.736 11.3716 193.156 11.1856C193.582 10.9996 194.063 10.9066 194.597 10.9066C195.132 10.9066 195.609 10.9996 196.03 11.1856C196.456 11.3716 196.79 11.6372 197.032 11.9826C197.28 12.328 197.404 12.7318 197.404 13.1941C197.404 13.6564 197.28 14.0629 197.032 14.4135C196.79 14.7589 196.456 15.0246 196.03 15.2106C195.603 15.3966 195.123 15.4895 194.588 15.4895ZM194.588 14.1346C194.849 14.1346 195.065 14.0549 195.237 13.8955C195.415 13.7308 195.504 13.497 195.504 13.1941C195.504 12.8912 195.415 12.6601 195.237 12.5007C195.065 12.3413 194.852 12.2616 194.597 12.2616C194.343 12.2616 194.13 12.3413 193.958 12.5007C193.786 12.6601 193.7 12.8912 193.7 13.1941C193.7 13.5023 193.783 13.7361 193.948 13.8955C194.114 14.0549 194.327 14.1346 194.588 14.1346Z" fill="#9EB6FF"/>
<path d="M189.341 10.9926C189.958 10.9926 190.448 11.1653 190.811 11.5107C191.174 11.8508 191.355 12.313 191.355 12.8975V15.1216C191.355 15.3327 191.184 15.5038 190.973 15.5038H189.866C189.655 15.5038 189.484 15.3327 189.484 15.1216V13.1047C189.484 12.8497 189.404 12.6504 189.245 12.507C189.086 12.3582 188.873 12.2838 188.606 12.2838C188.326 12.2838 188.106 12.3582 187.947 12.507C187.788 12.6504 187.708 12.8497 187.708 13.1047V15.1216C187.708 15.3327 187.537 15.5038 187.326 15.5038H186.219C186.008 15.5038 185.837 15.3327 185.837 15.1216V11.4147C185.837 11.2036 186.008 11.0325 186.219 11.0325H187.54C187.633 11.0325 187.708 11.1076 187.708 11.2004C187.708 11.3581 187.925 11.445 188.056 11.3574C188.153 11.2926 188.26 11.2348 188.377 11.1839C188.657 11.0564 188.978 10.9926 189.341 10.9926Z" fill="#9EB6FF"/>
<path d="M182.539 13.2459C182.539 13.264 182.539 13.282 182.539 13.3001C182.534 13.4883 182.371 13.6256 182.182 13.6256H179.249C179.026 13.6256 178.835 13.8264 178.943 14.0213C178.981 14.0886 179.027 14.1466 179.083 14.1952C179.235 14.3163 179.426 14.3768 179.657 14.3768C179.891 14.3768 180.077 14.3135 180.214 14.187C180.315 14.0941 180.435 14.0136 180.572 14.0136H181.922C182.173 14.0136 182.355 14.2552 182.227 14.4716C182.143 14.6132 182.039 14.7467 181.915 14.8721C181.671 15.1197 181.361 15.3151 180.984 15.4581C180.608 15.6012 180.192 15.6728 179.736 15.6728C179.189 15.6728 178.7 15.5764 178.271 15.3838C177.848 15.1912 177.515 14.9161 177.271 14.5584C177.033 14.2007 176.914 13.7797 176.914 13.2954C176.914 12.8112 177.033 12.3929 177.271 12.0408C177.508 11.6831 177.838 11.4079 178.261 11.2153C178.69 11.0227 179.182 10.9264 179.736 10.9264C180.284 10.9264 180.77 11.0199 181.192 11.207C181.615 11.3941 181.945 11.6638 182.183 12.016C182.42 12.3627 182.539 12.7727 182.539 13.2459ZM180.176 12.8414C180.387 12.8414 180.574 12.6493 180.439 12.4866C180.406 12.4471 180.367 12.4113 180.321 12.3792C180.162 12.2636 179.964 12.2058 179.727 12.2058C179.489 12.2058 179.294 12.2609 179.142 12.3709C179.116 12.389 179.091 12.4086 179.068 12.4297C178.888 12.5949 179.077 12.8414 179.321 12.8414H180.176Z" fill="white"/>
<path d="M174.315 10.9845C174.933 10.9845 175.423 11.1572 175.786 11.5026C176.149 11.8426 176.33 12.3049 176.33 12.8894V15.1135C176.33 15.3246 176.159 15.4957 175.948 15.4957H174.841C174.63 15.4957 174.459 15.3246 174.459 15.1135V13.0966C174.459 12.8416 174.379 12.6423 174.22 12.4989C174.061 12.3501 173.848 12.2757 173.58 12.2757C173.3 12.2757 173.081 12.3501 172.922 12.4989C172.762 12.6423 172.683 12.8416 172.683 13.0966V15.1135C172.683 15.3246 172.512 15.4957 172.301 15.4957H171.194C170.983 15.4957 170.812 15.3246 170.812 15.1135V11.4066C170.812 11.1955 170.983 11.0243 171.194 11.0243H172.515C172.608 11.0243 172.683 11.0995 172.683 11.1922C172.683 11.35 172.9 11.4369 173.031 11.3492C173.128 11.2845 173.234 11.2267 173.351 11.1758C173.631 11.0483 173.953 10.9845 174.315 10.9845Z" fill="white"/>
<path d="M168.785 10.61C168.454 10.61 168.187 10.5356 167.983 10.3868C167.786 10.2327 167.687 10.0415 167.687 9.81297C167.687 9.57918 167.786 9.38523 167.983 9.23114C168.187 9.07705 168.454 9 168.785 9C169.11 9 169.371 9.07705 169.568 9.23114C169.772 9.38523 169.873 9.57918 169.873 9.81297C169.873 10.0415 169.772 10.2327 169.568 10.3868C169.371 10.5356 169.11 10.61 168.785 10.61ZM169.329 11.0245C169.54 11.0245 169.711 11.1956 169.711 11.4067V15.1136C169.711 15.3247 169.54 15.4958 169.329 15.4958H168.222C168.011 15.4958 167.84 15.3247 167.84 15.1136V11.4067C167.84 11.1956 168.011 11.0245 168.222 11.0245H169.329Z" fill="#E9FF99"/>
<path d="M166.482 9.00586C166.693 9.00586 166.864 9.17699 166.864 9.38808V15.1137C166.864 15.3248 166.693 15.496 166.482 15.496H165.382C165.171 15.496 165 15.3248 165 15.1137V9.38808C165 9.17699 165.171 9.00586 165.382 9.00586H166.482Z" fill="#E9FF99"/>
</svg>
