<svg width="22" height="22" viewBox="0 0 22 22" fill="none" xmlns="http://www.w3.org/2000/svg">
<path id="Vector" d="M11 18.7778C12.0214 18.7778 13.0328 18.5766 13.9764 18.1857C14.9201 17.7949 15.7775 17.222 16.4997 16.4997C17.222 15.7775 17.7949 14.9201 18.1857 13.9764C18.5766 13.0328 18.7778 12.0214 18.7778 11M11 18.7778C8.93721 18.7778 6.9589 17.9583 5.50028 16.4997C4.04166 15.0411 3.22222 13.0628 3.22222 11M11 18.7778V21M18.7778 11C18.7778 9.97861 18.5766 8.96722 18.1857 8.02357C17.7949 7.07993 17.222 6.22251 16.4997 5.50028C15.7775 4.77805 14.9201 4.20514 13.9764 3.81427C13.0328 3.4234 12.0214 3.22222 11 3.22222M18.7778 11H21M11 3.22222C8.93721 3.22222 6.9589 4.04166 5.50028 5.50028C4.04166 6.9589 3.22222 8.93721 3.22222 11M11 3.22222V1M3.22222 11H1" stroke="#ED6308" stroke-width="1.5" stroke-linecap="round" stroke-linejoin="round"/>
</svg>
