<svg width="55" height="43" viewBox="0 0 55 43" fill="none" xmlns="http://www.w3.org/2000/svg">
<path fill-rule="evenodd" clip-rule="evenodd" d="M45.9859 17.7467C45.7802 17.6439 45.5252 17.5197 45.2355 17.3807C39.7703 22.0658 31.8156 26.7169 25.763 29.7433C22.2017 26.6907 16.7129 21.8873 12.2299 17.7429C10.172 17.7235 6.50722 17.6249 3.88904 17.3339C1.63601 17.0836 2.26803 15.0111 2.8378 13.1428C3.20737 11.9309 3.55075 10.805 3.06362 10.3178C1.82548 9.07968 0.174621 6.19068 2.6509 3.7144C4.51763 1.84767 8.24112 1.78883 10.161 2.01847C16.9176 0.256859 28.9923 -1.29888 41.5007 1.65884C44.7375 1.22423 48.3364 1.2968 50.5257 2.889C55.0655 6.1907 53.002 11.9687 50.9384 10.7305C51.6263 12.2438 52.8369 15.518 52.1766 16.5085C51.3511 17.7467 47.6367 18.5721 45.9859 17.7467Z" fill="white"/>
<circle cx="22.486" cy="8.08599" r="1.41662" fill="black"/>
<circle cx="31.9303" cy="8.08599" r="1.41662" fill="black"/>
<path d="M13.7078 6.89254C13.1819 7.58725 12.8745 8.51126 12.5513 9.30449C12.4415 9.57388 11.7693 12.1173 11.0034 10.9105C10.2847 9.77821 10.9682 7.91194 11.7802 7.00113C12.1528 6.5832 13.0031 6.33282 12.855 7.15545C12.6722 8.17092 12.1506 9.25316 11.4064 9.99035C10.388 10.9991 10.0571 9.74217 10.3375 8.86439C10.5156 8.30662 11.2387 7.10916 12.0139 7.72129C12.5941 8.17948 12.4461 9.23367 12.4461 9.87604" stroke="#FFEDDE" stroke-width="2.86894" stroke-linecap="round"/>
<path d="M40.4144 8.34683C40.4996 8.81558 40.5098 10.9692 41.2898 11.199C41.8235 11.3563 42.3966 10.9437 42.5133 10.5204C42.679 9.91863 42.5174 9.06562 41.9226 8.66781C41.6489 8.4847 41.1096 8.35311 40.7625 8.42937C40.0369 8.58879 40.2859 9.3292 40.5094 9.71789C40.7906 10.2069 41.6391 10.9766 42.2496 10.3278C42.71 9.8384 42.611 8.95217 42.4869 8.37893C42.3406 7.70319 41.8181 7.76906 41.1738 7.76906" stroke="#FFEDDE" stroke-width="2.86894" stroke-linecap="round"/>
<rect x="4.48853" y="17.4422" width="34.0122" height="25.2912" rx="1.91263" fill="#FFC192"/>
<rect x="8.84863" y="17.4422" width="40.9891" height="25.2912" rx="1.91263" fill="#FFEBCE"/>
<path d="M23.4243 20.9253C23.7909 19.4587 23.5771 13.8979 23.4243 11.3008H30.2989C30.2989 14.6618 29.9323 21.567 28.4657 22.3003C26.6325 23.2169 22.966 22.7586 23.4243 20.9253Z" fill="white"/>
<path d="M23.385 13.6166C23.7158 15.4851 24.2782 19.6227 23.8812 21.2243C23.385 23.2263 29.3397 23.6268 29.8359 21.2243C30.2329 19.3024 30.3321 15.3517 30.3321 13.6166" stroke="#575757" stroke-width="1.69267" stroke-linecap="round"/>
<path d="M16.0637 2.36573C13.8887 1.04741 5.80457 0.627802 3.19461 2.73713C-0.0678473 5.37378 0.653367 9.63673 3.10021 10.2959C5.54705 10.9551 -0.162238 16.2284 3.91582 17.5467C7.17827 18.6013 10.0014 17.2109 11.9045 15.6729" stroke="#828282" stroke-width="1.69704" stroke-linecap="round"/>
<path d="M36.6773 2.32443C39.0765 1.04945 47.2483 0.654001 50.1274 2.69397C53.7262 5.24393 54.3618 9.95405 51.6627 10.5915C48.9636 11.229 55.2615 16.3289 50.763 17.6039C47.1642 18.6239 43.7363 16.9376 41.6369 15.4501" stroke="#828282" stroke-width="1.6947" stroke-linecap="round"/>
<path d="M3.40654 27.5431C3.40654 28.4953 3.40654 29.4475 3.40654 30.3997C3.40654 30.6903 3.43145 30.9933 3.39592 31.282C3.36884 31.502 3.31669 31.7289 3.31101 31.9506C3.30765 32.0817 3.25378 32.2094 3.22875 32.3381C3.21682 32.3994 3.20008 32.4668 3.19691 32.5291C3.18974 32.67 3.4839 32.6277 3.55381 32.6286C4.55869 32.6418 5.56632 32.5958 6.56955 32.6658C7.40111 32.7238 8.2359 32.7255 9.06918 32.7255C9.89974 32.7255 10.7303 32.7255 11.5609 32.7255C11.7168 32.7255 11.7977 32.7559 11.728 32.5742C11.6615 32.4006 11.6532 32.2149 11.6219 32.0329C11.5902 31.8488 11.5564 31.6669 11.5516 31.4796C11.5276 30.5459 11.399 29.6014 11.4892 28.6656C11.5074 28.4768 11.5297 28.2783 11.5688 28.0924C11.5874 28.004 11.5584 27.941 11.6219 27.8775" stroke="#D96307" stroke-width="1.93146" stroke-linecap="round"/>
<path d="M3.88428 29.7162C3.93798 29.5954 4.55158 29.6685 4.64584 29.6685C5.18451 29.6685 5.72318 29.6685 6.26185 29.6685C7.18542 29.6685 8.11164 29.7038 9.02949 29.6127C9.71513 29.5447 10.4297 29.5968 11.1205 29.5968" stroke="#D96307" stroke-width="1.93146" stroke-linecap="round"/>
<path d="M1.9021 35.7822C2.28646 35.8727 2.70452 35.8278 3.09619 35.8353C3.58119 35.8446 4.06521 35.8539 4.55033 35.8539C5.68029 35.8539 6.81026 35.8539 7.94022 35.8539C8.90213 35.8539 9.86404 35.8539 10.8259 35.8539C11.6363 35.8539 12.441 35.8717 13.246 35.7822" stroke="#D96307" stroke-width="1.93146" stroke-linecap="round"/>
<path d="M7.56201 36.7614C7.68695 36.8004 7.60978 37.6209 7.60978 37.7299C7.60978 38.0678 7.60978 38.4057 7.60978 38.7436" stroke="#D96307" stroke-width="1.93146" stroke-linecap="round"/>
<path d="M15.2527 34.5427C16.0479 34.3698 16.8435 34.1654 17.5898 33.8348C17.8374 33.7251 18.037 33.5592 18.2494 33.3947C18.4806 33.2156 18.7146 33.0414 18.9091 32.8212C19.1973 32.4949 19.3933 32.1236 19.615 31.7542C19.9202 31.2455 20.1769 30.7373 20.3403 30.164C20.4442 29.7995 20.5645 29.4101 20.6153 29.0324C20.6494 28.778 20.6815 28.5234 20.7179 28.2691C20.7343 28.1539 20.7743 28.0399 20.7743 27.9244C20.7743 27.815 20.8297 27.7206 20.8297 27.6176" stroke="#D96307" stroke-width="1.93146" stroke-linecap="round"/>
<path d="M20.5396 31.1823C21.0347 31.5146 21.5662 31.79 22.0714 32.1057C22.3013 32.2494 22.5411 32.3732 22.7783 32.504C23.0621 32.6604 23.3106 32.8629 23.5906 33.026C23.8581 33.1817 24.1247 33.3501 24.4014 33.4885C24.5941 33.5848 24.8003 33.6606 24.9964 33.7511C25.1301 33.8128 25.3403 33.831 25.4375 33.9526" stroke="#D96307" stroke-width="1.93146" stroke-linecap="round"/>
<path d="M14.5813 37.8495H26.5954" stroke="#D96307" stroke-width="1.93146" stroke-linecap="round"/>
<path d="M27.8379 28.5699C28.2311 28.5699 28.6073 28.5938 28.963 28.5938C29.1532 28.5938 29.3433 28.5938 29.5335 28.5938C29.8444 28.5938 29.955 28.7977 30.0125 29.0794C30.1555 29.7805 30.4331 30.4596 30.441 31.1837C30.448 31.8283 30.441 32.4734 30.441 33.1181C30.441 34.3272 30.441 35.5364 30.441 36.7455C30.441 37.0004 30.4079 37.2422 30.3946 37.4951" stroke="#D96307" stroke-width="1.93146" stroke-linecap="round"/>
<path d="M30.5125 28.57C30.7839 28.3843 30.9877 28.3033 31.42 28.2118C31.5641 28.2118 31.7083 28.2118 31.8525 28.2118C32.1822 28.2118 32.4921 28.2503 32.817 28.3033C33.0027 28.3336 33.1843 28.346 33.3451 28.4532C33.7168 28.701 33.8767 29.2737 33.9329 29.6871C34.0142 30.2862 34.0778 30.888 34.1558 31.4876C34.216 31.9511 34.2884 32.4137 34.3163 32.8807C34.3335 33.1686 34.3295 33.4572 34.3588 33.7444C34.3962 34.1129 34.4501 34.4741 34.453 34.8456C34.4554 35.1693 34.453 35.4931 34.453 35.8168C34.453 36.2078 34.453 36.5987 34.453 36.9897C34.453 37.1396 34.453 37.2895 34.453 37.4395C34.453 37.5121 34.4571 37.5859 34.453 37.6584" stroke="#D96307" stroke-width="1.93146" stroke-linecap="round"/>
<path d="M38.1787 27.4474C38.1787 28.7177 38.107 29.9833 38.107 31.2539C38.107 32.5926 38.107 33.9313 38.107 35.27C38.107 35.6967 38.1179 36.1251 38.1057 36.5517C38.0986 36.7993 38.0946 37.0906 38.0447 37.3344" stroke="#D96307" stroke-width="1.93146" stroke-linecap="round"/>
<path d="M41.2542 28.1718C41.2971 28.1432 41.3664 28.1408 41.4132 28.1359C41.6479 28.1114 41.8867 28.117 42.1221 28.1164C43.0762 28.114 44.0476 28.0686 44.9978 28.1728C45.2014 28.1951 45.4038 28.2233 45.6082 28.2374C45.7068 28.2442 45.8142 28.2345 45.9119 28.2539C45.9596 28.2633 45.9897 28.2859 46.0309 28.3082C46.116 28.3544 46.2315 28.3498 46.3243 28.3688C46.5246 28.4096 46.7494 28.451 46.9378 28.5309C47.0659 28.5851 47.0859 28.7226 47.104 28.8469C47.1577 29.2151 47.2177 29.5825 47.2641 29.9518C47.3128 30.3388 47.3113 30.7248 47.3113 31.1142C47.3113 31.6261 47.3113 32.1381 47.3113 32.65C47.3113 32.7796 47.2056 32.7839 47.0856 32.8111C46.5115 32.941 45.9156 32.9178 45.3312 32.9178C44.9532 32.9178 44.5601 32.892 44.1832 32.9373C44.0353 32.955 43.8879 33.0004 43.739 33.0204C43.5051 33.0517 43.256 33.0286 43.0208 33.0286C42.9308 33.0286 42.6276 33.0472 42.6053 33.1589C42.5374 33.4986 42.5838 33.8828 42.5838 34.2258C42.5838 34.4939 42.5884 34.7625 42.5725 35.0302C42.5554 35.3171 42.4937 35.5958 42.4627 35.8807C42.4268 36.2105 42.3437 36.5228 42.3437 36.8553C42.3437 37.0061 42.3982 37.0704 42.5489 37.1241C42.9144 37.2543 43.3591 37.2162 43.741 37.2288C44.1928 37.2436 44.6453 37.2406 45.0973 37.239C45.358 37.2381 45.6159 37.2084 45.876 37.2031C46.4657 37.1911 47.0539 37.1836 47.6437 37.1836" stroke="#D96307" stroke-width="1.93146" stroke-linecap="round"/>
<path d="M51.2417 27.0654C51.2361 27.412 51.1832 27.7553 51.1727 28.1016C51.1469 28.9624 51.1666 29.8279 51.1714 30.6888C51.1797 32.1623 51.2417 33.6322 51.2417 35.1056C51.2417 35.9601 51.2417 36.8145 51.2417 37.6689" stroke="#D96307" stroke-width="1.93146" stroke-linecap="round"/>
</svg>
